PathFileType	4	(X/Y/Z)	c:/Users/goper/Files/vsCode/490R/osim_files/A06/A06_SSWS_05.trc
DataRate	CameraRate	NumFrames	NumMarkers	Units                	OrigDataRate	OrigDataStartFrame	OrigNumFrames
120.00	120.00	8	36	mm	120.0	1104	1261
                Frame#	Time	LPSIS			LASIS			LTH1			LTH2			LTH3			LTH4			LLFE			LMFE			LSH1			LSH2			LSH3			LSH4			LLMAL			LMMAL			LCAL			LMTP5			LTOE			LMTP1			RPSIS			RASIS			RTH1			RTH2			RTH3			RTH4			RLFE			RMFE			RSH1			RSH2			RSH3			RSH4			RLMAL			RMMAL			RCAL			RMTP1			RTOE			RMTP5		
		X1	Y1	Z1	X2	Y2	Z2	X3	Y3	Z3	X4	Y4	Z4	X5	Y5	Z5	X6	Y6	Z6	X7	Y7	Z7	X8	Y8	Z8	X9	Y9	Z9	X10	Y10	Z10	X11	Y11	Z11	X12	Y12	Z12	X13	Y13	Z13	X14	Y14	Z14	X15	Y15	Z15	X16	Y16	Z16	X17	Y17	Z17	X18	Y18	Z18	X19	Y19	Z19	X20	Y20	Z20	X21	Y21	Z21	X22	Y22	Z22	X23	Y23	Z23	X24	Y24	Z24	X25	Y25	Z25	X26	Y26	Z26	X27	Y27	Z27	X28	Y28	Z28	X29	Y29	Z29	X30	Y30	Z30	X31	Y31	Z31	X32	Y32	Z32	X33	Y33	Z33	X34	Y34	Z34	X35	Y35	Z35	X36	Y36	Z36

1104	9.19167	-3480.31689	963.15314	302.84894	-3677.89673	914.78229	368.73660	-3502.12183	578.53387	397.67599	-3496.63037	536.15802	392.05826	-3564.39648	559.40692	388.44547	-3546.70288	520.11871	384.24451	-3491.10010	459.27975	374.92349	-3491.97583	455.49609	263.89731	-3402.82764	393.34830	391.01312	-3390.35278	348.65167	395.43161	-3457.27612	368.46988	381.15167	-3439.74390	330.95331	384.49136	-3291.79004	113.07890	348.58105	-3312.05225	122.87232	263.85010	-3223.51367	115.06871	299.76276	-3391.65552	41.87449	367.36551	-3433.45581	54.04563	311.89740	-3410.34644	53.73814	273.62231	-3478.58447	976.45886	171.82812	-3656.79980	954.94098	112.00033	0.00000	0.00000	0.00000	-3692.97070	528.80804	77.26720	-3726.83545	592.24231	88.56315	-3742.10913	550.52740	84.50893	-3761.01514	434.08542	104.81405	-3761.40186	435.41599	195.29004	0.00000	0.00000	0.00000	-3825.83203	240.42465	121.27415	-3858.39624	302.72574	132.83142	-3871.29688	256.34906	128.94792	0.00000	0.00000	0.00000	-3884.23242	123.07917	199.33203	-3829.76538	72.64293	164.60739	-4023.21191	131.19487	193.19540	-4033.96826	148.89265	153.38007	-4016.30347	123.71249	105.39288
1105	9.20000	0.00000	0.00000	0.00000	-3688.12451	913.59277	368.38449	-3510.34131	578.27295	397.55844	-3504.65454	535.91321	392.16476	-3572.69019	558.70227	388.94519	-3554.67163	519.45770	384.78229	-3498.51343	459.00699	375.27682	-3500.18823	454.81970	264.26712	-3409.18506	394.23816	391.11670	-3395.93530	349.73038	395.59262	-3463.26538	368.44434	381.55704	-3445.09985	331.19543	384.83514	-3293.24463	115.69791	348.51077	-3315.22803	125.00458	264.82098	-3225.88721	119.06690	299.88077	-3392.10596	41.99678	367.49588	-3433.80151	53.47613	311.89185	-3411.15991	53.69378	273.84155	-3490.60425	975.62268	170.92116	-3668.40527	952.91699	111.13815	0.00000	0.00000	0.00000	-3701.57520	526.61871	76.78929	-3736.07007	589.59314	88.09195	-3751.06860	547.75299	84.07663	-3768.74805	431.22647	104.51154	-3765.13086	430.21213	192.68269	-3810.16870	280.24918	118.53680	-3831.43701	236.78204	121.10144	-3864.61182	298.74652	132.73038	-3877.11011	252.24863	128.89006	0.00000	0.00000	0.00000	-3889.13818	121.08223	199.58755	-3835.94189	74.33414	162.23032	-4031.57227	128.74986	193.06012	-4039.49561	141.93642	153.50294	-4021.11670	117.21874	105.56916
1106	9.20833	-3501.93286	960.16571	299.25916	-3698.55420	912.58673	368.11905	-3518.91382	578.00513	397.44180	-3514.00488	536.17157	393.65112	-3579.12646	556.75055	388.75217	-3563.46021	519.22595	386.59052	-3506.13330	458.54242	375.77689	-3508.60742	453.99344	264.76559	-3415.83057	395.17102	391.24350	-3401.83350	350.90250	395.82266	-3469.57129	368.42856	382.01273	-3450.82080	331.56595	385.32022	-3295.52100	118.37535	348.75256	-3317.93359	127.12668	265.09436	-3228.64087	123.31805	300.04291	-3393.29834	42.26546	367.92441	-3434.21313	53.09399	311.89658	-3411.93921	53.61178	274.05148	-3502.20117	973.69379	168.96063	-3680.45044	950.95770	110.27563	0.00000	0.00000	0.00000	-3709.67725	524.47534	76.34492	-3744.91040	587.10858	87.55157	-3759.26587	545.03546	83.51336	-3775.60132	428.33139	104.16199	-3774.25146	428.65131	195.42986	-3816.20166	277.62137	119.29799	-3836.12695	233.24551	121.04975	-3869.94067	294.77371	132.56967	-3881.90796	248.14879	128.79996	0.00000	0.00000	0.00000	0.00000	0.00000	0.00000	-3844.59082	73.78461	160.64728	-4032.93774	118.74861	194.22038	-4043.58984	134.91943	153.48427	-4024.61548	110.57288	105.64512
1107	9.21667	-3513.21753	959.65430	298.03262	-3709.08740	911.65210	367.91690	-3527.87427	577.69812	397.30743	-3522.72998	535.95892	393.83307	-3587.78345	556.11438	389.28339	-3572.27002	519.30859	387.10977	-3514.22095	458.26273	376.28363	-3517.24854	452.89645	265.31573	-3422.93481	396.23700	391.43362	-3408.23047	352.21832	396.06244	-3476.34741	368.52670	382.55399	-3459.57178	333.73230	388.65625	-3298.87622	121.18925	349.29016	-3321.17529	129.56534	265.53506	-3231.78955	127.44527	300.59003	-3393.84985	42.46259	368.08008	-3434.66479	52.64686	311.89667	-3413.03345	53.54420	274.39706	-3514.11182	971.86383	166.77501	-3692.81201	949.07611	109.43991	0.00000	0.00000	0.00000	-3717.59155	522.92096	75.83393	-3753.70776	584.56140	87.39733	-3767.46143	542.95996	82.96987	-3782.39160	426.06946	103.78364	-3780.92358	426.51117	194.97353	-3821.20728	274.94107	119.15685	-3840.74829	230.36508	120.90078	-3875.13062	291.45523	132.37025	-3886.60083	244.73039	128.66046	0.00000	0.00000	0.00000	0.00000	0.00000	0.00000	-3849.05249	73.06225	161.02287	-4036.55127	112.60571	194.37231	-4047.68457	128.48352	153.56166	-4028.04297	104.49770	105.76191
1108	9.22500	-3523.79736	957.32758	295.21094	-3719.77124	910.89697	367.76016	-3537.34961	577.52466	397.10355	-3531.73779	535.78241	393.92670	-3596.94800	555.63800	389.86285	-3581.40625	519.07471	387.49826	-3522.63501	456.81848	378.38480	-3522.60913	448.94022	267.50797	-3430.89966	397.01297	393.33075	-3415.00854	353.58984	396.24820	-3483.40991	368.57404	383.10904	-3463.41431	332.45172	386.39243	-3301.15332	124.35526	349.35617	-3324.56885	132.01736	266.00244	-3235.27051	132.41737	300.85138	-3394.49829	42.69588	368.17770	-3435.10059	52.29069	311.88782	-3414.08252	53.33102	274.73401	-3525.26001	969.65710	163.85953	-3705.40015	947.39789	108.77625	0.00000	0.00000	0.00000	-3725.54590	522.11414	75.11800	-3762.21997	583.38641	86.61392	-3775.45752	541.61499	82.23188	-3789.24658	424.63925	103.21753	-3787.78174	425.16464	194.44014	-3826.31787	273.15726	118.80276	-3845.42822	228.43790	120.45741	-3880.44922	289.03867	132.03265	-3891.36328	242.13705	128.34741	-3891.39038	106.35661	114.14938	-3900.38281	114.91426	200.03235	-3842.68066	76.55907	161.25180	-4040.04785	107.47168	194.37390	-4051.61719	123.00442	153.54648	-4031.50708	99.34082	105.78777
1109	9.23333	-3535.35913	957.22675	294.13971	-3730.61865	910.36310	367.60623	-3547.40698	577.25586	397.04367	-3541.55151	535.64783	394.13351	-3606.60571	555.21423	390.44067	-3591.07324	518.86310	387.85153	-3532.11499	457.80435	377.43250	-3539.10522	451.20459	267.34543	-3438.80859	398.62183	391.89429	-3421.24438	355.18973	395.60962	-3491.15894	368.75650	383.72510	-3470.42944	333.04630	386.96921	-3304.59839	127.69051	349.76300	-3327.61768	134.68536	265.80157	-3239.17212	138.28694	300.72827	-3394.38916	42.81666	368.08386	-3435.45093	52.07262	311.90491	-3415.19507	52.92391	275.14194	-3538.22729	969.60760	162.74608	-3718.08569	945.92529	108.22667	0.00000	0.00000	0.00000	-3733.16992	521.80994	74.32862	-3770.44922	582.73975	85.56737	-3783.17236	540.82129	81.46398	-3796.35474	424.33170	103.22143	-3794.48560	424.51779	193.70726	-3830.77954	271.83087	118.44257	-3849.60107	226.86432	120.09982	-3885.31299	287.05206	131.51691	-3895.63232	240.00298	127.97066	-3894.12402	104.78606	113.98363	-3903.32251	113.31581	199.87703	-3845.19238	76.77876	161.16618	-4042.80566	102.78056	194.15041	-4054.68091	118.04414	153.29565	-4033.98169	94.62213	105.56881
1110	9.24167	-3546.72461	956.36139	292.37704	-3741.56421	910.07104	367.36194	-3558.09863	576.94733	396.93985	-3551.92725	535.50354	394.23389	-3616.92822	554.77698	390.91046	-3601.30420	518.54352	388.13193	-3541.82349	456.34390	379.43658	-3549.94434	450.32172	267.94403	-3447.66162	399.88290	392.10684	-3429.16992	356.65021	395.96164	-3499.52466	368.93213	384.26291	-3477.93530	333.61002	387.42935	-3308.30249	131.37268	350.16418	-3331.27832	137.99915	266.26288	-3242.94824	144.64116	300.73688	-3396.60425	42.96775	368.66876	-3435.78369	51.89126	311.90540	-3416.32251	52.52279	275.54346	0.00000	0.00000	0.00000	-3730.80371	944.82562	107.75770	-3722.76416	560.63049	73.94547	-3740.35718	521.97888	73.24106	-3778.50269	582.43658	84.20298	-3790.16626	539.17450	81.37191	-3803.09106	423.51315	103.16697	-3798.96509	423.26688	189.83168	-3834.88013	270.90134	117.91098	-3853.39209	225.92442	119.41782	-3889.69653	285.42169	130.81424	-3899.37695	238.21388	127.37713	-3896.28125	103.52601	113.78331	-3907.89868	113.63216	198.73056	-3847.18384	76.93452	161.07489	-4045.05371	98.68967	193.69402	-4057.19116	113.60396	152.78334	-4035.97729	90.43930	105.15578
1111	9.25000	-3557.99170	956.06549	290.82590	-3752.69653	910.04474	366.99182	-3569.19629	576.61578	396.68082	-3563.14648	535.17712	394.37054	-3628.08301	554.48358	391.32736	-3612.22778	518.11963	388.31720	-3552.98560	457.30496	378.26013	-3561.66675	449.49576	268.50793	-3457.36646	401.32339	392.38351	-3437.83984	358.12607	396.33505	-3508.56519	369.18463	384.79755	-3486.30664	334.36682	388.00858	-3312.63574	135.28314	350.64120	-3336.48853	141.06671	267.54926	-3248.12524	150.97473	301.02734	-3396.08594	43.62745	368.35608	-3436.26709	51.86571	311.92276	-3417.54614	52.29689	275.86090	-3562.12500	968.49683	158.58078	-3743.35254	944.27051	107.33830	-3730.39038	561.44501	72.48619	-3747.33789	522.39398	71.88284	-3786.36230	582.45734	82.67534	-3797.40918	538.98615	79.84099	-3808.95239	423.40527	102.16905	-3806.93164	424.31339	191.63399	-3837.91260	269.76270	116.45404	0.00000	0.00000	0.00000	-3893.87695	284.16275	129.87715	-3902.96973	236.86591	126.56814	-3899.62793	104.26133	112.58548	-3910.39380	112.79123	198.30560	-3846.98682	76.77526	159.12997	-4047.16406	95.09715	193.09091	-4059.51147	109.66572	152.06598	-4037.75732	86.68390	104.58410
